<?xml version="1.0" standalone="no"?>
<!DOCTYPE svg PUBLIC "-//W3C//DTD SVG 20010904//EN"
 "http://www.w3.org/TR/2001/REC-SVG-20010904/DTD/svg10.dtd">
<svg version="1.0" xmlns="http://www.w3.org/2000/svg"
 width="24px" height="24px" viewBox="0 0 64.000000 64.000000"
 preserveAspectRatio="xMidYMid meet">

<g transform="translate(0.000000,64.000000) scale(0.100000,-0.100000)"
fill="#ddd" stroke="#ddd">
<path d="M266 608 c-13 -19 -16 -59 -16 -238 0 -248 3 -260 70 -260 67 0 70
12 70 260 0 248 -3 260 -70 260 -29 0 -43 -6 -54 -22z m88 -24 c8 -20 8 -408
0 -428 -8 -21 -60 -21 -68 0 -8 20 -8 408 0 428 4 9 18 16 34 16 16 0 30 -7
34 -16z"/>
<path d="M486 458 c-23 -33 -24 -348 -1 -348 13 0 15 24 15 154 0 85 3 161 6
170 4 9 18 16 34 16 16 0 30 -7 34 -16 12 -31 7 -369 -6 -382 -9 -9 -84 -12
-275 -12 -227 0 -263 -2 -263 -15 0 -13 36 -15 268 -15 343 0 312 -24 312 236
0 220 -4 234 -70 234 -29 0 -43 -6 -54 -22z"/>
<path d="M46 308 c-11 -15 -16 -45 -16 -88 0 -84 16 -110 70 -110 54 0 70 26
70 110 0 84 -16 110 -70 110 -29 0 -43 -6 -54 -22z m88 -24 c8 -20 8 -108 0
-128 -8 -21 -60 -21 -68 0 -8 20 -8 108 0 128 4 9 18 16 34 16 16 0 30 -7 34
-16z"/>
</g>
</svg>
