<svg width="48" height="48" viewBox="0 0 48 48" fill="none" xmlns="http://www.w3.org/2000/svg">
<g clip-path="url(#clip0_2_146)">
<path d="M3.48245 6.30518H29.1571H29.6396V6.72846V17.6867H28.6734V7.15047H3.9649V33.834H16.6109V34.6793H3.48245H3V34.2573V6.72846V6.30518H3.48245Z" fill="black"/>
<path d="M24.9302 10.9307H7.70801V11.892H24.9302V10.9307Z" fill="black"/>
<path d="M24.9302 16.5698H7.70801V17.5311H24.9302V16.5698Z" fill="black"/>
<path d="M16.6109 22.21H7.70801V23.1713H16.6109V22.21Z" fill="black"/>
<path d="M16.6109 27.8491H7.70801V28.8104H16.6109V27.8491Z" fill="black"/>
<path d="M18.0597 18.5396H44.2168V48H17.5759V18.5396H18.0584H18.0597ZM43.2506 19.418H18.5421V47.1215H43.2506V19.418Z" fill="black"/>
<path d="M39.5074 24.8315H22.2852V25.7929H39.5074V24.8315Z" fill="black"/>
<path d="M39.5074 30.4717H22.2852V31.433H39.5074V30.4717Z" fill="black"/>
<path d="M39.5074 36.1123H22.2852V37.0736H39.5074V36.1123Z" fill="black"/>
<path d="M39.5074 41.7515H22.2852V42.7128H39.5074V41.7515Z" fill="black"/>
<path d="M15.4514 5.08376C16.2563 3.83048 17.7562 2.75442 19.6898 2.02387C21.5006 1.34049 23.7055 0.952905 26.0806 1.00518H26.1062H26.1075C30.1411 1.09952 33.1587 2.90104 35.1524 5.4382C37.1334 7.95879 38.0932 11.2074 38.0279 14.2214V14.2456L37.0656 14.2265V14.2023C37.127 11.3935 36.2351 8.36933 34.3949 6.02723C32.5674 3.70171 29.7956 2.04937 26.0857 1.96267H26.0614C23.8143 1.91422 21.7335 2.27758 20.0289 2.92271C18.2898 3.58059 16.9563 4.52278 16.2615 5.60267L15.4514 5.08376Z" fill="black"/>
<path d="M36.3312 14.7162H36.1315L37.5405 16.4476L38.9495 14.7162H36.3312ZM35.1219 13.7549H40.9714L40.3341 14.5377L37.9142 17.5122L37.5405 17.9712L37.1668 17.5122L34.7469 14.5377L34.1096 13.7549H35.1206H35.1219Z" fill="black"/>
</g>
<defs>
<clipPath id="clip0_2_146">
<rect width="41.2154" height="47" fill="white" transform="translate(3 1)"/>
</clipPath>
</defs>
</svg>
