<?xml version="1.0" standalone="no"?>
<!DOCTYPE svg PUBLIC "-//W3C//DTD SVG 20010904//EN"
 "http://www.w3.org/TR/2001/REC-SVG-20010904/DTD/svg10.dtd">
<svg version="1.0" xmlns="http://www.w3.org/2000/svg"
 width="24px" height="24px" viewBox="0 0 225.000000 225.000000"
 preserveAspectRatio="xMidYMid meet">

<g transform="translate(0.000000,225.000000) scale(0.100000,-0.100000)"
fill="#ddd" stroke="#ddd">
<path d="M546 2235 c-83 -29 -135 -110 -136 -207 0 -50 3 -60 25 -74 23 -15
27 -15 49 -1 19 13 24 26 28 77 4 49 9 66 31 88 l27 27 760 0 760 0 27 -28 28
-27 0 -761 0 -761 -33 -29 c-27 -25 -41 -29 -87 -29 -47 0 -57 -3 -71 -25 -15
-23 -15 -27 0 -50 14 -22 24 -25 74 -25 100 1 188 61 211 147 15 54 15 1494 0
1548 -15 52 -82 119 -134 134 -64 18 -1508 14 -1559 -4z"/>
<path d="M125 1821 c-51 -23 -101 -79 -114 -128 -15 -52 -15 -1494 0 -1546 12
-44 59 -101 103 -125 28 -16 95 -17 796 -17 421 0 777 3 792 8 40 11 98 66
119 112 17 38 19 86 19 796 l0 757 -28 53 c-22 43 -38 59 -81 81 l-53 28 -757
0 c-710 0 -758 -2 -796 -19z m1581 -115 l34 -34 0 -121 0 -121 -821 0 -821 0
4 126 3 126 33 29 32 29 751 0 751 0 34 -34z m32 -961 l-3 -585 -28 -27 -27
-28 -760 0 -760 0 -27 28 -28 27 -3 585 -2 585 820 0 820 0 -2 -585z"/>
<path d="M231 1624 c-23 -17 -28 -53 -9 -72 21 -21 68 -15 77 11 18 49 -27 89
-68 61z"/>
<path d="M646 1630 c-46 -16 -34 -90 14 -90 34 0 52 21 48 56 -3 30 -32 45
-62 34z"/>
<path d="M850 1627 c-28 -14 -38 -51 -20 -73 11 -12 74 -14 400 -14 l387 0 9
23 c14 32 6 57 -22 68 -40 15 -724 11 -754 -4z"/>
<path d="M422 1618 c-15 -15 -15 -51 0 -66 7 -7 24 -12 38 -12 31 0 50 17 50
45 0 28 -19 45 -50 45 -14 0 -31 -5 -38 -12z"/>
</g>
</svg>
