<?xml version="1.0" standalone="no"?>
<!DOCTYPE svg PUBLIC "-//W3C//DTD SVG 20010904//EN"
 "http://www.w3.org/TR/2001/REC-SVG-20010904/DTD/svg10.dtd">
<svg version="1.0" xmlns="http://www.w3.org/2000/svg"
 width="24px" height="24px" viewBox="0 0 500.000000 500.000000"
 preserveAspectRatio="xMidYMid meet">

<g transform="translate(0.000000,500.000000) scale(0.100000,-0.100000)"
fill="#ddd" stroke="#ddd">
<path d="M708 4351 c-73 -24 -112 -49 -169 -108 -112 -117 -119 -150 -119
-570 l0 -333 100 0 100 0 0 324 c0 215 4 334 11 357 19 56 59 100 113 125 l51
24 1905 0 c1312 0 1917 -3 1943 -11 44 -12 110 -68 135 -113 16 -29 17 -144
17 -1546 l0 -1515 -28 -47 c-18 -31 -44 -57 -75 -75 l-47 -28 -757 -3 -758 -2
0 -101 0 -100 778 3 777 3 67 32 c126 60 213 170 238 302 14 74 14 2988 0
3062 -25 132 -112 242 -238 302 l-67 32 -1960 2 c-1870 2 -1963 1 -2017 -16z"/>
<path d="M420 2811 l0 -101 69 0 c104 0 290 -26 431 -61 587 -145 1098 -557
1365 -1102 130 -264 215 -604 215 -857 l0 -60 100 0 100 0 0 83 c0 206 -66
531 -152 746 -47 118 -151 316 -224 426 -180 271 -431 516 -701 684 -319 197
-713 322 -1070 338 l-133 6 0 -102z"/>
<path d="M420 2192 c0 -114 -2 -112 96 -112 138 0 394 -69 554 -150 463 -233
763 -685 806 -1212 l7 -88 100 0 100 0 -6 97 c-27 404 -197 782 -477 1064
-300 301 -652 461 -1087 494 l-93 7 0 -100z"/>
<path d="M420 1563 l0 -100 80 -6 c295 -23 588 -247 695 -532 30 -78 55 -196
55 -256 l0 -39 102 0 101 0 -6 93 c-11 172 -89 378 -196 519 -182 240 -461
397 -738 415 l-93 6 0 -100z"/>
<path d="M330 1029 c-161 -31 -297 -176 -320 -340 -33 -228 113 -428 341 -470
178 -33 360 65 442 239 29 61 32 75 32 167 0 92 -3 106 -32 167 -86 182 -269
275 -463 237z m146 -204 c81 -24 153 -113 154 -190 0 -97 -75 -194 -165 -213
-83 -18 -160 9 -213 74 -99 120 -34 297 123 335 44 10 47 10 101 -6z"/>
</g>
</svg>
