<?xml version="1.0" encoding="UTF-8"?>
<svg xmlns="http://www.w3.org/2000/svg" xmlns:xlink="http://www.w3.org/1999/xlink" width="20px" height="20px" viewBox="0 0 20 20" version="1.1">
<g id="surface1" fill="#ddd" stroke="#ddd">
<path style=" stroke-width=10;fill-rule:nonzero;fill:rgb(86.666667%,86.666667%,86.666667%);fill-opacity:1;" d="M 19.375 19.601562 L 0.625 19.601562 L 0.625 19.148438 L 19.375 19.148438 Z M 19.375 15.226562 L 0.625 15.226562 C 0.5 15.226562 0.398438 15.125 0.398438 15 L 0.398438 1.25 C 0.398438 1.125 0.5 1.023438 0.625 1.023438 L 19.375 1.023438 C 19.5 1.023438 19.601562 1.125 19.601562 1.25 L 19.601562 15 C 19.601562 15.125 19.5 15.226562 19.375 15.226562 Z M 15.851562 14.773438 L 19.148438 14.773438 L 19.148438 1.476562 L 0.851562 1.476562 L 0.851562 14.773438 L 4.148438 14.773438 L 4.148438 14.375 C 4.148438 11.976562 5.804688 9.796875 8.152344 9.003906 C 7.234375 8.394531 6.667969 7.355469 6.667969 6.234375 C 6.667969 4.394531 8.160156 2.898438 10 2.898438 C 11.835938 2.898438 13.332031 4.394531 13.332031 6.234375 C 13.332031 7.355469 12.765625 8.394531 11.847656 9.003906 C 14.195312 9.796875 15.851562 11.976562 15.851562 14.375 Z M 4.597656 14.773438 L 15.398438 14.773438 L 15.398438 14.375 C 15.398438 12.003906 13.636719 9.867188 11.210938 9.289062 C 11.117188 9.269531 11.046875 9.1875 11.039062 9.09375 C 11.027344 8.996094 11.082031 8.90625 11.171875 8.867188 C 12.210938 8.402344 12.882812 7.371094 12.882812 6.234375 C 12.882812 4.644531 11.589844 3.351562 10 3.351562 C 8.410156 3.351562 7.117188 4.644531 7.117188 6.234375 C 7.117188 7.371094 7.789062 8.402344 8.828125 8.867188 C 8.917969 8.90625 8.972656 8.996094 8.960938 9.09375 C 8.953125 9.1875 8.882812 9.269531 8.789062 9.289062 C 6.363281 9.867188 4.601562 12.003906 4.601562 14.375 L 4.601562 14.773438 Z M 4.597656 14.773438 "/>
</g>
</svg>
